# AST/ASF file generated using VICON BodyLanguage
# -----------------------------------------------
:version 1.10
:name VICON
:units
  mass 1.0
  length 0.45
  angle deg
:documentation
   .ast/.asf automatically generated from VICON data using
   VICON BodyBuilder and BodyLanguage model FoxedUp or BRILLIANT.MOD
:root
   order TX TY TZ RX RY RZ
   axis XYZ
   position 0 0 0  
   orientation 0 0 0 
:bonedata
  begin
     id 1 
     name lhipjoint
     direction 0.78388 -0.462562 0.414208 
     length 3.01181 
     axis 0 0 0  XYZ
  end
  begin
     id 2 
     name lfemur
     direction 0.34202 -0.939693 0  
     length 6.04673  
     axis 0 0 20  XYZ
    dof rx ry rz
    limits (-160.0 20.0)
           (-70.0 70.0)
           (-60.0 70.0)
  end
  begin
     id 3 
     name ltibia
     direction 0.34202 -0.939693 0   
     length 7.211   
     axis 0 0 20   XYZ
    dof rx
    limits (-10.0 170.0)
  end
  begin
     id 4 
     name lfoot
     direction 0.121887 -0.334882 0.934344   
     length 2.13567   
     axis -90 7.62852e-016 20   XYZ
    dof rx rz
    limits (-45.0 90.0)
           (-70.0 20.0)
  end
  begin
     id 5 
     name ltoes
     direction 1.53555e-011 -4.2179e-011 1   
     length 1.05957   
     axis -90 7.62852e-016 20   XYZ
    dof rx
    limits (-90.0 20.0)
  end
  begin
     id 6 
     name rhipjoint
     direction -0.769387 -0.475875 0.426129   
     length 2.92756  
     axis 0 0 0  XYZ 
  end
  begin
     id 7 
     name rfemur
     direction -0.34202 -0.939693 0   
     length 6.35468   
     axis 0 0 -20   XYZ
    dof rx ry rz
    limits (-160.0 20.0)
           (-70.0 70.0)
           (-70.0 60.0)
  end
  begin
     id 8 
     name rtibia
     direction -0.34202 -0.939693 0   
     length 7.37886   
     axis 0 0 -20   XYZ
    dof rx
    limits (-10.0 170.0)
 end
 begin
     id 9 
     name rfoot
     direction -0.101763 -0.279592 0.954711   
     length 2.21478  
     axis -90 -7.62852e-016 -20   XYZ
    dof rx rz
    limits (-45.0 90.0)
           (-20.0 70.0)
  end
  begin
     id 10 
     name rtoes
     direction -1.53494e-011 -4.21851e-011 1   
     length 1.10506   
     axis -90 -7.62852e-016 -20   XYZ
    dof rx
    limits (-90.0 20.0)
  end
  begin
     id 11 
     name lowerback
     direction 0.00747405 0.999267 0.0375481   
     length 2.13259   
     axis 0 0 0   XYZ
    dof rx ry rz
    limits (-20.0 45.0)
           (-30.0 30.0)
           (-30.0 30.0)
  end
  begin
     id 12 
     name upperback
     direction 0.00661626 0.996177 0.0871029   
     length 2.10528   
     axis 0 0 0   XYZ
    dof rx ry rz
    limits (-20.0 45.0)
           (-30.0 30.0)
           (-30.0 30.0)
  end
  begin
     id 13 
     name thorax
     direction 0.00320659 0.997679 0.0680167   
     length 2.11338   
     axis 0 0 0   XYZ
    dof rx ry rz
    limits (-20.0 45.0)
           (-30.0 30.0)
           (-30.0 30.0)
  end
  begin
     id 14 
     name lowerneck
     direction 0.0374841 0.973033 0.227602   
     length 1.42765   
     axis 0 0 0   XYZ
    dof rx ry rz
    limits (-20.0 45.0)
           (-30.0 30.0)
           (-30.0 30.0)
  end
  begin
     id 15 
     name upperneck
     direction 0.00481585 0.989155 -0.146795   
     length 1.47593   
     axis 0 0 0   XYZ
    dof rx ry rz
    limits (-20.0 45.0)
           (-30.0 30.0)
           (-30.0 30.0)
  end
  begin
     id 16
     name head
     direction -0.00292522 0.997206 -0.0746423  
     length 1.48116  
     axis 0 0 0   XYZ
    dof rx ry rz
    limits (-20.0 45.0)
           (-30.0 30.0)
           (-30.0 30.0)
  end
  begin
     id 17 
     name lclavicle
     direction 0.951444 0.305606 0.0368784  
     length 3.01855  
     axis 0 0 0   XYZ
    dof ry rz
    limits (-20.0 10.0)
           (0.0 20.0)
  end
  begin
     id 18 
     name lhumerus
     direction 1 -4.48977e-011 2.61664e-027   
     length 5.52731   
     axis 180 -30 -90   XYZ
    dof rx ry rz
    limits (-60.0 90.0)
           (-90.0 90.0)
           (-90.0 90.0)
  end
  begin
     id 19
     name lradius
     direction 1 -4.48944e-011 8.22157e-027   
     length 3.11059   
     axis 180 -30 -90   XYZ
    dof rx
    limits (-10.0 170.0)
  end
  begin
     id 20
     name lwrist
     direction 1 -4.48976e-011 1.5779e-026   
     length 1.5553   
     axis -1.15221e-014 90 90   XYZ
    dof ry
    limits (-180.0 0.0)
 end
  begin
     id 21 
     name lhand
     direction 1 -4.49025e-011 3.1558e-026   
     length 0.419626   
     axis -2.01367e-014 90 90   XYZ
    dof rx rz
    limits (-90.0 90.0)
           (-45.0 45.0)
  end
  begin
     id 22 
     name lfingers
     direction 1 -4.4904e-011 6.31161e-026   
     length 0.338313   
     axis -4.02734e-014 90 90   XYZ
    dof rx
    limits (0.0 90.0)
  end
  begin
     id 23
     name lthumb
     direction 0.707107 -6.35004e-011 0.707107   
     length 0.485752   
     axis -90 45 2.85299e-015   XYZ
    dof rx rz
    limits (-45.0 45.0)
           (-45.0 45.0)
  end
  begin
     id 24 
     name rclavicle
     direction -0.968876 0.223791 0.105816   
     length 3.04177  
     axis 0 0 0   XYZ 
    dof ry rz
    limits (-10.0 20.0)
           (-20.0 0.0)
  end
  begin
     id 25 
     name rhumerus
     direction -1 -4.48962e-011 -1.01384e-027  
     length 5.25396   
     axis 180 30 90   XYZ
    dof rx ry rz
    limits (-90.0 60.0)
           (-90.0 90.0)
           (-90.0 90.0)
  end
  begin
     id 26 
     name rradius
     direction -1 -4.48955e-011 8.88542e-027   
     length 3.10567   
     axis 180 30 90   XYZ
    dof rx
    limits (-10.0 170.0)
  end
  begin
     id 27 
     name rwrist
     direction -1 -4.48994e-011 1.5779e-026   
     length 1.55283   
     axis -1.15221e-014 -90 -90   XYZ
    dof ry
    limits (-180.0 0.0)
  end
  begin
     id 28
     name rhand
     direction -1 -4.48891e-011 3.1558e-026   
     length 0.498676   
     axis -2.01367e-014 -90 -90   XYZ
    dof rx rz
    limits (-90.0 90.0)
           (-45.0 45.0)
  end
  begin
     id 29
     name rfingers
     direction -1 -4.48972e-011 6.31161e-026   
     length 0.402045   
     axis -4.02734e-014 -90 -90   XYZ
    dof rx
    limits (0.0 90.0)
  end
  begin
     id 30
     name rthumb
     direction -0.707107 -6.34849e-011 0.707107   
     length 0.577259   
     axis -90 -45 -2.85299e-015   XYZ
    dof rx rz
    limits (-45.0 45.0)
           (-45.0 45.0)
  end
:hierarchy
  begin
    root lhipjoint rhipjoint lowerback
    lhipjoint lfemur
    lfemur ltibia
    ltibia lfoot
    lfoot ltoes
    rhipjoint rfemur
    rfemur rtibia
    rtibia rfoot
    rfoot rtoes
    lowerback upperback
    upperback thorax
    thorax lowerneck lclavicle rclavicle
    lowerneck upperneck
    upperneck head
    lclavicle lhumerus
    lhumerus lradius
    lradius lwrist
    lwrist lhand lthumb
    lhand lfingers
    rclavicle rhumerus
    rhumerus rradius
    rradius rwrist
    rwrist rhand rthumb
    rhand rfingers
  end

#!OML:ASF H:\Pregnant\Project 1\Capture day 1\Session 1\femalepreg.ASF
:FULLY-SPECIFIED
:DEGREES
1
root 8.24722 15.4605 24.2298 -156.042 -4.00394 -175.725
lowerback -8.60276 -0.653147 -3.55403
upperback -4.57108 -1.00454 0.997124
thorax 0.15141 -0.602229 2.94111
lowerneck -15.979 4.01048 2.57824
upperneck 30.7722 3.38913 -0.747056
head 13.0167 1.01515 -0.357466
rclavicle -6.95746e-016 1.59028e-014
rhumerus -43.316 11.0646 -70.4999
rradius 53.0757
rwrist -16.6261
rhand -8.24662 -24.9556
rfingers 7.12502
rthumb 17.6715 -54.1726
lclavicle -6.95746e-016 1.59028e-014
lhumerus -26.1893 -15.715 84.624
lradius 35.3302
lwrist 45.4332
lhand -28.8266 -1.08165
lfingers 7.12502
lthumb -2.18425 28.8869
rfemur -54.993 11.8066 2.47333
rtibia 34.1377
rfoot -8.0475 -17.5212
rtoes -9.13459
lfemur -36.418 -4.80697 -15.5422
ltibia 34.5642
lfoot -19.4436 8.85206
ltoes -14.2438
2
root 8.2673 15.4622 24.1801 -155.96 -4.13069 -175.883
lowerback -8.68279 -0.645889 -3.4886
upperback -4.54719 -0.995514 1.02593
thorax 0.219413 -0.599524 2.93358
lowerneck -15.9518 3.94081 2.59205
upperneck 30.7927 3.29191 -0.787937
head 13.0188 0.967334 -0.391775
rclavicle -5.76476e-015 0
rhumerus -43.1648 11.095 -70.3237
rradius 53.5104
rwrist -16.6063
rhand -8.5436 -24.8197
rfingers 7.12502
rthumb 17.3857 -54.0622
lclavicle -5.76476e-015 0
lhumerus -26.3078 -16.1194 85
lradius 35.5314
lwrist 45.9771
lhand -28.3657 -1.28092
lfingers 7.12502
lthumb -1.73915 28.6917
rfemur -54.8131 11.9829 1.51615
rtibia 32.8723
rfoot -8.11259 -18.5308
rtoes -9.23253
lfemur -36.1367 -4.88082 -15.6019
ltibia 34.1926
lfoot -19.3927 8.76945
ltoes -14.4758
3
root 8.28855 15.4625 24.1292 -155.867 -4.2551 -176.058
lowerback -8.7317 -0.643313 -3.43961
upperback -4.50842 -0.99016 1.06658
thorax 0.286406 -0.597349 2.94754
lowerneck -16.1017 3.88723 2.59216
upperneck 30.8524 3.2338 -0.840045
head 13.0756 0.936692 -0.418994
rclavicle -1.05356e-014 -7.95139e-016
rhumerus -42.8263 11.0761 -70.1001
rradius 53.787
rwrist -16.4918
rhand -8.59999 -24.7939
rfingers 7.12502
rthumb 17.3315 -54.0412
lclavicle -1.05356e-014 -7.95139e-016
lhumerus -26.3303 -16.3843 85.3437
lradius 35.6784
lwrist 46.3903
lhand -27.9749 -1.24036
lfingers 7.12502
lthumb -1.36171 28.735
rfemur -54.7439 12.1389 0.596503
rtibia 31.8151
rfoot -8.35684 -19.4659
rtoes -9.2193
lfemur -35.8387 -4.94796 -15.6785
ltibia 33.7921
lfoot -19.3666 8.68851
ltoes -14.633
4
root 8.31328 15.4647 24.0744 -155.749 -4.3386 -176.262
lowerback -8.83277 -0.645239 -3.44127
upperback -4.54009 -0.996143 1.11925
thorax 0.310168 -0.602395 3.00162
lowerneck -15.9741 3.82657 2.5357
upperneck 30.8777 3.15249 -0.850729
head 13.056 0.887732 -0.429186
rclavicle 1.88845e-015 -2.26615e-014
rhumerus -42.7308 11.1778 -69.9951
rradius 54.1946
rwrist -16.5917
rhand -8.97119 -24.9798
rfingers 7.12502
rthumb 16.9742 -54.2581
lclavicle 1.88845e-015 -2.26615e-014
lhumerus -26.556 -16.751 85.7496
lradius 35.7865
lwrist 46.66
lhand -27.6454 -1.52116
lfingers 7.12502
lthumb -1.04346 28.456
rfemur -54.6115 12.2393 -0.184774
rtibia 30.7594
rfoot -8.47383 -19.9879
rtoes -9.02413
lfemur -35.5425 -4.985 -15.7905
ltibia 33.3974
lfoot -19.3644 8.63128
ltoes -14.7177
5
root 8.33775 15.4636 24.0203 -155.639 -4.43055 -176.454
lowerback -8.92479 -0.642412 -3.41694
upperback -4.53986 -0.993648 1.16105
thorax 0.361094 -0.602938 3.03032
lowerneck -15.9635 3.77057 2.51258
upperneck 30.9161 3.08048 -0.878469
head 13.0683 0.847566 -0.448109
rclavicle -2.78299e-015 -7.95139e-015
rhumerus -42.5352 11.216 -69.8658
rradius 54.536
rwrist -16.6208
rhand -9.27247 -25.0022
rfingers 7.12502
rthumb 16.6841 -54.3052
lclavicle -2.78299e-015 -7.95139e-015
lhumerus -26.6959 -17.1147 86.1288
lradius 35.8912
lwrist 46.9141
lhand -27.4095 -1.64037
lfingers 7.12502
lthumb -0.815636 28.3378
rfemur -54.5302 12.3999 -1.03492
rtibia 29.7938
rfoot -8.64061 -20.6966
rtoes -8.99372
lfemur -35.2515 -5.02371 -15.8864
ltibia 33.0188
lfoot -19.3287 8.56038
ltoes -14.8771
6
root 8.36387 15.4614 23.9647 -155.525 -4.50997 -176.652
lowerback -9.02439 -0.639508 -3.39927
upperback -4.54308 -0.991148 1.20559
thorax 0.412667 -0.603615 3.06561
lowerneck -15.9501 3.71874 2.48272
upperneck 30.9548 3.016 -0.905082
head 13.0801 0.809916 -0.464319
rclavicle -1.14301e-014 -4.37326e-015
rhumerus -42.3324 11.2551 -69.7593
rradius 54.8557
rwrist -16.6661
rhand -9.59401 -25.0509
rfingers 7.12502
rthumb 16.3746 -54.3797
lclavicle -1.14301e-014 -4.37326e-015
lhumerus -26.8459 -17.4932 86.5149
lradius 35.9734
lwrist 47.047
lhand -27.3332 -1.69061
lfingers 7.12502
lthumb -0.741895 28.2878
rfemur -54.4776 12.5575 -1.83976
rtibia 28.9393
rfoot -8.81451 -21.3295
rtoes -9.00509
lfemur -34.9599 -5.04754 -15.9871
ltibia 32.6494
lfoot -19.2841 8.48984
ltoes -15.0612
7
root 8.39174 15.4582 23.9078 -155.407 -4.57665 -176.854
lowerback -9.12937 -0.635729 -3.38516
upperback -4.5498 -0.987814 1.25091
thorax 0.463496 -0.604033 3.1038
lowerneck -15.9281 3.67083 2.44899
upperneck 30.9929 2.95714 -0.929721
head 13.0898 0.77426 -0.478369
rclavicle 2.08724e-015 -5.1684e-015
rhumerus -42.1291 11.2934 -69.6802
rradius 55.1572
rwrist -16.7257
rhand -9.94019 -25.0902
rfingers 7.12502
rthumb 16.0412 -54.4461
lclavicle 2.08724e-015 -5.1684e-015
lhumerus -27.0115 -17.8897 86.9059
lradius 36.041
lwrist 47.0657
lhand -27.4258 -1.67298
lfingers 7.12502
lthumb -0.831301 28.3051
rfemur -54.4271 12.7113 -2.59181
rtibia 28.1538
rfoot -8.97026 -21.8983
rtoes -9.08194
lfemur -34.68 -5.0562 -16.0891
ltibia 32.3144
lfoot -19.2459 8.42039
ltoes -15.2777
8
root 8.42136 15.4536 23.8497 -155.29 -4.63225 -177.055
lowerback -9.23507 -0.629675 -3.36807
upperback -4.55712 -0.981966 1.29686
thorax 0.513847 -0.603298 3.14124
lowerneck -15.8996 3.628 2.4158
upperneck 31.0254 2.90687 -0.95666
head 13.0959 0.7423 -0.492057
rclavicle -3.57812e-015 7.55382e-015
rhumerus -41.9109 11.3243 -69.6255
rradius 55.4305
rwrist -16.7826
rhand -10.2684 -25.1374
rfingers 7.12502
rthumb 15.7252 -54.5185
lclavicle -3.57812e-015 7.55382e-015
lhumerus -27.1837 -18.2941 87.2961
lradius 36.0947
lwrist 46.9825
lhand -27.6355 -1.59553
lfingers 7.12502
lthumb -1.03389 28.3817
rfemur -54.3932 12.8518 -3.2733
rtibia 27.4729
rfoot -9.12666 -22.409
rtoes -9.26677
lfemur -34.4056 -5.05396 -16.1858
ltibia 32.0028
lfoot -19.2205 8.35479
ltoes -15.5264
9
root 8.45281 15.4478 23.7907 -155.175 -4.67352 -177.256
lowerback -9.33528 -0.621812 -3.35414
upperback -4.56604 -0.97398 1.34705
thorax 0.559404 -0.601376 3.1852
lowerneck -15.8585 3.58918 2.37619
upperneck 31.0504 2.86568 -0.986289
head 13.0964 0.713275 -0.504329
rclavicle -1.13307e-014 1.35174e-014
rhumerus -41.6826 11.3601 -69.5934
rradius 55.6828
rwrist -16.836
rhand -10.5721 -25.2058
rfingers 7.12502
rthumb 15.4327 -54.6097
lclavicle -1.13307e-014 1.35174e-014
lhumerus -27.3706 -18.6828 87.6836
lradius 36.1464
lwrist 46.8226
lhand -27.9045 -1.5091
lfingers 7.12502
lthumb -1.29366 28.4667
rfemur -54.3705 12.9755 -3.87544
rtibia 26.8941
rfoot -9.2961 -22.8594
rtoes -9.49558
lfemur -34.1369 -5.04227 -16.2782
ltibia 31.7205
lfoot -19.226 8.29929
ltoes -15.7898
10
root 8.48609 15.4405 23.7308 -155.064 -4.7023 -177.456
lowerback -9.4272 -0.610508 -3.3397
upperback -4.57764 -0.962077 1.39867
thorax 0.597303 -0.597405 3.23094
lowerneck -15.7991 3.55596 2.34041
upperneck 31.0672 2.83402 -1.02328
head 13.0898 0.687879 -0.518757
rclavicle -6.11263e-015 -4.77083e-015
rhumerus -41.4396 11.3947 -69.5875
rradius 55.9015
rwrist -16.8786
rhand -10.8415 -25.2807
rfingers 7.12502
rthumb 15.1732 -54.7044
lclavicle -6.11263e-015 -4.77083e-015
lhumerus -27.5697 -19.0443 88.0595
lradius 36.1934
lwrist 46.6166
lhand -28.1532 -1.43985
lfingers 7.12502
lthumb -1.53392 28.5344
rfemur -54.3546 13.0699 -4.38134
rtibia 26.413
rfoot -9.46582 -23.2409
rtoes -9.80549
lfemur -33.8789 -5.02767 -16.3632
ltibia 31.4755
lfoot -19.2718 8.26132
ltoes -16.0706
11
root 8.52134 15.4316 23.67 -154.956 -4.71657 -177.652
lowerback -9.50745 -0.595716 -3.3254
upperback -4.59058 -0.946064 1.45486
thorax 0.627102 -0.591173 3.28212
lowerneck -15.7251 3.52755 2.30057
upperneck 31.0731 2.81308 -1.06516
head 13.0757 0.666326 -0.532708
rclavicle 7.65321e-015 4.37326e-015
rhumerus -41.1794 11.4382 -69.6068
rradius 56.0883
rwrist -16.9133
rhand -11.0781 -25.3574
rfingers 7.12502
rthumb 14.9452 -54.7981
lclavicle 7.65321e-015 4.37326e-015
lhumerus -27.7786 -19.3675 88.4214
lradius 36.2387
lwrist 46.3821
lhand -28.3507 -1.41056
lfingers 7.12502
lthumb -1.72466 28.5622
rfemur -54.3421 13.1303 -4.77748
rtibia 26.0251
rfoot -9.6275 -23.5423
rtoes -10.1531
lfemur -33.6321 -5.00855 -16.4384
ltibia 31.274
lfoot -19.363 8.24626
ltoes -16.3731
12
root 8.55858 15.421 23.6082 -154.855 -4.71842 -177.843
lowerback -9.57588 -0.57635 -3.30586
upperback -4.59867 -0.924078 1.51222
thorax 0.654926 -0.581729 3.33233
lowerneck -15.6611 3.50341 2.26218
upperneck 31.0762 2.80094 -1.11171
head 13.0629 0.64874 -0.547074
rclavicle -3.65267e-015 2.5842e-015
rhumerus -40.8907 11.4861 -69.6546
rradius 56.2362
rwrist -16.9362
rhand -11.2833 -25.4412
rfingers 7.12502
rthumb 14.7475 -54.8966
lclavicle -3.65267e-015 2.5842e-015
lhumerus -27.984 -19.6407 88.7531
lradius 36.2846
lwrist 46.146
lhand -28.4239 -1.45948
lfingers 7.12502
lthumb -1.79531 28.5127
rfemur -54.3262 13.1476 -5.05021
rtibia 25.7262
rfoot -9.76555 -23.7591
rtoes -10.5136
lfemur -33.3989 -4.98569 -16.5028
ltibia 31.1232
lfoot -19.4962 8.25561
ltoes -16.6897
